<svg xmlns="http://www.w3.org/2000/svg" viewBox="0 0 238.8 100"><circle cx="85.4" cy="84.9" r="14.2" fill="#0057d6"/><circle cx="117.6" cy="84.9" r="14.2" fill="#ab3da0"/><circle cx="149.8" cy="84.9" r="14.2" fill="#ed1c24"/><circle cx="182" cy="84.9" r="14.2" fill="#f7931e"/><circle cx="214.2" cy="84.9" r="14.2" fill="#27d654"/><path d="M116.5 90.2V79.6c0-.2.1-.3.3-.3h1.7c.2 0 .3.1.3.3v10.6c0 .2-.1.3-.3.3h-1.7c-.2 0-.3-.1-.3-.3zm29 0V79.6c0-.2.1-.3.3-.3h1.6c.1 0 .2.1.3.2l4 6.6s0 .1.1 0v-6.6c0-.2.1-.3.3-.3h1.7c.2 0 .3.1.3.3v10.6c0 .2-.1.3-.3.3h-1.6c-.1 0-.2-.1-.3-.2l-4-6.7s0-.1-.1 0v6.7c0 .2-.1.3-.3.3h-1.7c-.2 0-.3-.1-.3-.3zm34.4-.1c-.6-.3-1.1-.8-1.5-1.4-.3-.6-.5-1.3-.5-2v-3.6c0-.8.2-1.5.5-2.1.3-.6.8-1.1 1.5-1.4.6-.3 1.3-.5 2.2-.5.8 0 1.5.2 2.1.5.6.3 1.1.7 1.4 1.3.3.5.5 1.2.5 1.8 0 .2-.1.3-.3.3h-1.9l-.1-.1v-.1c0-.5-.2-.9-.5-1.2-.3-.3-.8-.5-1.4-.5-.6 0-1 .2-1.4.5-.3.4-.5.8-.5 1.4v3.7c0 .6.2 1 .6 1.4.4.4.8.5 1.4.5.6 0 1-.1 1.3-.4.3-.3.5-.7.5-1.2v-.7c0-.1 0-.1-.1-.1H182c-.2 0-.3-.1-.3-.3v-1.3c0-.2.1-.3.3-.3h3.7c.2 0 .3.1.3.3v2c0 .8-.2 1.5-.5 2.1-.3.6-.8 1-1.4 1.4-.6.3-1.3.5-2.2.5-.7 0-1.4-.2-2-.5zm32.1 0c-.6-.3-1.1-.8-1.5-1.4-.3-.6-.5-1.3-.5-2.1v-3.4c0-.8.2-1.5.5-2.1.3-.6.8-1.1 1.5-1.4a5.09 5.09 0 0 1 4.4 0c.6.3 1.1.8 1.5 1.4.3.6.5 1.3.5 2.1v3.4c0 .8-.2 1.5-.5 2.1-.3.6-.8 1.1-1.5 1.4-.6.3-1.4.5-2.2.5-.9 0-1.6-.1-2.2-.5zm3.6-1.9c.4-.4.5-.9.5-1.5v-3.5c0-.6-.2-1.1-.5-1.5-.4-.4-.8-.6-1.4-.6-.6 0-1.1.2-1.4.6-.4.4-.5.9-.5 1.5v3.5c0 .6.2 1.1.5 1.5.4.4.8.6 1.4.6.5-.1 1-.3 1.4-.6zM88 84.7c1 .6 1.5 1.4 1.5 2.6 0 1-.3 1.8-1 2.3-.7.5-1.6.8-2.8.8h-4c-.2 0-.3-.1-.3-.3V79.6c0-.2.1-.3.3-.3h3.9c2.5 0 3.8 1 3.8 3.1 0 1.1-.4 1.8-1.4 2.3 0-.1 0 0 0 0zm-4.3-3.4v2.4c0 .1 0 .1.1.1h1.8c.5 0 .9-.1 1.2-.3s.4-.6.4-1-.1-.7-.4-1-.7-.4-1.2-.4l-1.9.2zm3.2 6.8c.3-.2.4-.6.4-1s-.1-.8-.4-1c-.3-.2-.7-.4-1.2-.4h-2c-.1 0-.1 0-.1.1v2.6c0 .1 0 .1.1.1h2c.5 0 .9-.1 1.2-.4z" fill="#fff"/><path d="M1 25.4s8-.1 13.4-.1c1.7 13.9 3.3 27.8 5 41.6 1.4-10.3 6.7-41.7 6.7-41.7s2.6 0 7.9-.1c1.5 12.4 4.3 37.2 4.3 37.2l5-37.3 6.4-.1-7.3 55.6-10.9 4.4s-3.3-18.5-5-30.3c-2 12.6-4.1 22-6 34.6-3.9 1.5-12.8 5.2-12.8 5.2L1 25.4zm51.5-.3h12.2c-.5 16.9-.9 33.9-1.4 50.8-4.8 1.3-7.3 2-12.1 3.4.5-18.1.9-36.2 1.3-54.2zm17-.1h7.7l18.5 23.3L96 25h5.2l-.8 42.7-7.7 1.5-19.2-21.5s-.5 15.7-.8 25.8c-1.8.4-2.8.7-4.6 1.1.5-16.5.9-33 1.4-49.6zm35-.1h9.1l19.1 20.5.7-20.6h4.6l-.7 38.2s-5.1.4-8.2.8c-7.8-7.5-19.4-19.6-19.4-19.6v22.2l-5.2.7V24.9zm39.1 0h26.6c-.1 2.3-.1 3.5-.1 5.7-5.7 0-8.6 0-14.3.1-.1 4-.2 6-.3 9.9 4.4-.1 6.6-.2 11-.3-.1 2.2-.1 3.3-.1 5.5-4.4.1-6.6.2-11 .4-.1 3.9-.2 5.8-.3 9.8 5.8-.3 8.7-.5 14.5-.7-.1 2.2-.1 3.4-.1 5.7-10.8.5-16.1.8-26.9 1.7.2-12.7.6-25.3 1-37.8zm29.6-.1h18.1c2.3 0 4.4.3 6.1.9 1.7.6 3.2 1.4 4.4 2.4 1.2 1 2 2.3 2.6 3.7.6 1.4.9 2.9.8 4.6 0 2-.5 3.8-1.4 5.4-.9 1.6-2.2 2.8-4 3.7 2.6 5.7 3.9 8.5 6.5 14.7-5.6 0-8.4 0-14 .1-1.9-5.4-2.9-7.9-4.8-13h-2.6c-.1 5.1-.2 7.6-.3 13-5 .1-7.4.2-12.4.4.4-11.9.7-23.9 1-35.9zm12.6 18.4c1 0 1.9-.2 2.7-.5.8-.3 1.5-.8 2-1.3.6-.6 1-1.2 1.3-2 .3-.8.5-1.6.5-2.6 0-.9-.1-1.8-.4-2.6-.3-.8-.7-1.5-1.2-2.1-.5-.6-1.2-1-2-1.4-.8-.3-1.7-.5-2.7-.5h-.7c-.1 5.3-.2 7.8-.3 12.9.4.1.5.1.8.1zm23.7 8.9c1.5.9 3.1 1.5 4.7 2 1.7.4 3.2.7 4.6.7 1.6 0 2.8-.2 3.6-.8.8-.5 1.2-1.2 1.2-2.1 0-.3 0-.6-.1-.9-.1-.3-.3-.6-.5-.9-.3-.3-.6-.6-1.1-.9-.5-.3-1.1-.6-1.8-.9-1.5-.6-2.3-.9-3.8-1.4-2.7-1-4.8-2.4-6.1-4.1-1.4-1.7-2-3.8-2-6.2 0-1.6.3-3.1.9-4.5.6-1.5 1.5-2.8 2.7-4 1.2-1.2 2.7-2.1 4.6-2.8 1.8-.7 4-1.1 6.4-1.1 1.2 0 2.4.1 3.5.3 1.1.2 2.2.4 3.1.7 1 .3 1.9.6 2.7 1 .8.4 1.5.7 2.2 1-.9 2-1.4 2.9-2.3 4.8-.5-.3-.9-.6-1.4-.9-.5-.2-1-.5-1.5-.6-.5-.2-1-.3-1.5-.4-.5-.1-.9-.1-1.3-.1-.7 0-1.3.1-1.8.3-.5.2-.9.5-1.3.8-.3.3-.6.7-.8 1.1-.2.4-.3.8-.3 1.2 0 .3.1.7.2 1 .1.3.4.6.8.9.4.3.8.6 1.4.9.6.3 1.3.6 2.2 1l2.5 1c2.8 1 4.9 2.4 6.3 4.2 1.5 1.8 2.2 3.9 2.2 6.4 0 1.7-.4 3.3-1.1 4.8-.7 1.5-1.8 2.8-3.2 3.9-1.4 1.1-3.1 2-5.2 2.6-2.1.6-4.5.9-7.2.8-1.3 0-2.6-.1-3.8-.3-1.2-.2-2.4-.4-3.6-.8-1.2-.3-2.3-.7-3.4-1.2s-2.2-1.1-3.4-1.7c1.2-1.9 1.7-2.9 2.7-4.8z" fill="#4d4d4d"/><path d="M3.9 18.4l-1.2-17c0-.2.1-.3.3-.3h2.3c.2 0 .3.1.3.3L6 11.9c0 .1 0 .1.1.1 0 0 .1 0 .1-.1L9.1 1.4c.1-.2.2-.3.4-.3h1.9c.2 0 .3.1.3.3l.3 10.5c0 .1 0 .1.1.1 0 0 .1 0 .1-.1L15 1.4c.1-.2.2-.3.4-.3h2.3c.1 0 .1 0 .2.1 0 .1.1.1 0 .2l-5.2 17c-.1.2-.2.3-.4.3h-2.1c-.2 0-.3-.1-.3-.3L9.6 7.7c0-.1 0-.1-.1-.1 0 0-.1 0-.1.1L6.7 18.4c-.1.2-.2.3-.4.3H4.2c-.2 0-.3-.1-.3-.3zm23.7-5.1c-.1.1-.1.1-.2.1H22c-.1 0-.1 0-.2.1l-.1 1.1v.3c0 .5.1.8.4 1.1.2.3.5.4.9.4s.7-.1 1-.4c.3-.3.5-.6.7-1 .1-.2.2-.3.4-.3l2.2.2c.2 0 .3.1.2.3-.3 1.1-.8 2-1.6 2.7-.8.6-1.9.9-3.1.9-1.2 0-2.2-.3-2.9-.9-.7-.6-1-1.5-1-2.5 0-.1 0-.4.1-.7l.6-5.1c.2-1.2.7-2.2 1.5-3s2-1.1 3.3-1.1c1.2 0 2.2.3 2.9 1 .7.6 1 1.5 1 2.5v.6l-.4 3.4-.3.3zm-4.7-4.6c-.3.3-.5.7-.6 1.3l-.2 1.1c0 .1 0 .1.1.1H25c.1 0 .1 0 .2-.1l.1-1.1v-.3c0-.4-.1-.8-.4-1.1-.2-.3-.6-.4-1-.4-.3 0-.7.1-1 .5zm8.4 9.9c-.1-.1-.1-.1-.1-.2l2.1-17c0-.1.1-.2.1-.2.1-.1.1-.1.2-.1h2.2c.1 0 .2 0 .2.1.1.1.1.1.1.2l-2.1 17c0 .1-.1.2-.1.2-.1.1-.1.1-.2.1h-2.2c-.1 0-.2 0-.2-.1zm7.1 0c-.1-.1-.1-.1-.1-.2l2.1-17c0-.1.1-.2.1-.2.1-.1.1-.1.2-.1H43c.1 0 .2 0 .2.1.1.1.1.1.1.2l-2.1 17c0 .1-.1.2-.1.2-.1.1-.1.1-.2.1h-2.2c-.2 0-.3 0-.3-.1zm14.5-.2l2.1-17c0-.1.1-.2.1-.2.1-.1.1-.1.2-.1h4.2c1.3 0 2.3.4 3 1.1s1.1 1.7 1.1 2.9c0 .2 0 .5-.1.8l-1 8c-.2 1.5-.7 2.6-1.7 3.5-.9.9-2.1 1.3-3.5 1.3h-4.2c-.1 0-.2-.1-.2-.3zm3.3-2.2h1.5c.5 0 1-.2 1.4-.7.4-.4.6-1 .8-1.8l.9-7.7v-.5c0-.6-.1-1.1-.4-1.4-.3-.3-.7-.5-1.2-.5h-1.4c-.1 0-.1 0-.1.1l-1.5 12.4c-.1.1-.1.1 0 .1zM67.8 18c-.7-.6-1-1.5-1-2.5 0-.1 0-.3.1-.6l.6-5.1c.2-1.2.7-2.2 1.5-3s2-1.1 3.3-1.1c1.2 0 2.2.3 2.9 1 .7.6 1 1.5 1 2.5v.6l-.6 5.1c-.2 1.3-.7 2.3-1.5 3s-2 1.1-3.4 1.1c-1.3-.1-2.2-.4-2.9-1zm4.3-2.1c.3-.3.5-.8.6-1.3l.6-4.7v-.3c0-.4-.1-.8-.4-1.1-.2-.3-.6-.4-1-.4-.5 0-.8.2-1.2.5-.2.4-.4.8-.5 1.4l-.6 4.7v.3c0 .4.1.8.4 1.1.2.3.6.4 1 .4.4-.1.8-.3 1.1-.6zm16.3-9.4c.5.6.7 1.4.7 2.4 0 .3 0 .6-.1 1l-1 8.5c0 .1-.1.2-.1.2-.1.1-.1.1-.2.1h-2.2c-.1 0-.2 0-.2-.1-.1-.1-.1-.1-.1-.2l1-8.3v-.5c0-.5-.1-.8-.3-1.1-.2-.3-.5-.4-.9-.4-.5 0-.9.2-1.2.5-.3.3-.5.8-.6 1.5l-1 8.3c0 .1-.1.2-.1.2-.1.1-.1.1-.2.1h-2.2c-.1 0-.2 0-.2-.1-.1-.1-.1-.1-.1-.2l1.5-12.3c0-.1.1-.2.1-.2.1-.1.1-.1.2-.1h2.2c.1 0 .2 0 .2.1.1.1.1.1.1.2l-.1.5v.1s.1 0 .1-.1c.6-.7 1.4-1 2.4-1 1.1 0 1.8.3 2.3.9zm13 6.8c-.1.1-.1.1-.2.1h-5.4c-.1 0-.1 0-.2.1l-.1 1.1v.3c0 .5.1.8.4 1.1.2.3.5.4.9.4s.7-.1 1-.4c.3-.3.5-.6.7-1 .1-.2.2-.3.4-.3l2.1.3c.2 0 .3.1.2.3-.3 1.1-.8 2-1.6 2.7-.8.6-1.9.9-3.1.9-1.2 0-2.2-.3-2.9-.9-.7-.6-1-1.5-1-2.5 0-.1 0-.4.1-.7l.6-5.1c.2-1.2.7-2.2 1.5-3s2-1.1 3.3-1.1c1.2 0 2.2.3 2.9 1 .7.6 1 1.5 1 2.5v.6l-.4 3.4-.2.2zm-4.7-4.6c-.3.3-.5.7-.6 1.3l-.2 1.1c0 .1 0 .1.1.1h2.7c.1 0 .1 0 .2-.1L99 10v-.3c0-.4-.1-.8-.4-1.1-.2-.3-.6-.4-1-.4-.2 0-.6.1-.9.5z" fill="#666"/></svg>